<?xml version="1.0" encoding="UTF-8" standalone="no"?>
<!DOCTYPE svg PUBLIC "-//W3C//DTD SVG 1.1//EN"
 "http://www.w3.org/Graphics/SVG/1.1/DTD/svg11.dtd">
<!-- Generated by graphviz version 15.1.0 (20260618.0150)
 -->
<!-- Pages: 1 -->
<svg width="246pt" height="216pt"
 viewBox="0.00 0.00 246.00 216.00" xmlns="http://www.w3.org/2000/svg" xmlns:xlink="http://www.w3.org/1999/xlink">
<g id="graph0" class="graph" transform="scale(1 1) rotate(0) translate(4 211.5)">
<polygon fill="white" stroke="none" points="-4,4 -4,-211.5 242,-211.5 242,4 -4,4"/>
<!-- root -->
<g id="node1" class="node">
<title>root</title>
<path fill="#10b981" stroke="black" d="M226,-207.5C226,-207.5 12,-207.5 12,-207.5 6,-207.5 0,-201.5 0,-195.5 0,-195.5 0,-178.5 0,-178.5 0,-172.5 6,-166.5 12,-166.5 12,-166.5 226,-166.5 226,-166.5 232,-166.5 238,-172.5 238,-178.5 238,-178.5 238,-195.5 238,-195.5 238,-201.5 232,-207.5 226,-207.5"/>
<text xml:space="preserve" text-anchor="middle" x="119" y="-190.2" font-family="Times,serif" font-size="14.00" fill="white">Recent Advances in RH Approximations</text>
<text xml:space="preserve" text-anchor="middle" x="119" y="-173.7" font-family="Times,serif" font-size="14.00" fill="white">(Main Result)</text>
</g>
<!-- dep_0 -->
<g id="node2" class="node">
<title>dep_0</title>
<path fill="#fee2e2" stroke="black" d="M181,-114C181,-114 57,-114 57,-114 51,-114 45,-108 45,-102 45,-102 45,-85 45,-85 45,-79 51,-73 57,-73 57,-73 181,-73 181,-73 187,-73 193,-79 193,-85 193,-85 193,-102 193,-102 193,-108 187,-114 181,-114"/>
<text xml:space="preserve" text-anchor="middle" x="119" y="-96.7" font-family="Times,serif" font-size="14.00">Core technique</text>
<text xml:space="preserve" text-anchor="middle" x="119" y="-80.2" font-family="Times,serif" font-size="14.00">(available&#45;but&#45;scattered)</text>
</g>
<!-- root&#45;&gt;dep_0 -->
<g id="edge1" class="edge">
<title>root&#45;&gt;dep_0</title>
<path fill="none" stroke="black" d="M119,-166.15C119,-154.28 119,-138.94 119,-125.5"/>
<polygon fill="black" stroke="black" points="122.5,-125.83 119,-115.83 115.5,-125.83 122.5,-125.83"/>
<text xml:space="preserve" text-anchor="middle" x="141.88" y="-135.2" font-family="Times,serif" font-size="14.00">medium</text>
</g>
<!-- base -->
<g id="node3" class="node">
<title>base</title>
<ellipse fill="#e0e7ff" stroke="black" cx="119" cy="-18" rx="77.45" ry="18"/>
<text xml:space="preserve" text-anchor="middle" x="119" y="-12.95" font-family="Times,serif" font-size="14.00">Mathlib / Axioms</text>
</g>
<!-- dep_0&#45;&gt;base -->
<g id="edge2" class="edge">
<title>dep_0&#45;&gt;base</title>
<path fill="none" stroke="black" d="M119,-72.8C119,-65.06 119,-56.01 119,-47.57"/>
<polygon fill="black" stroke="black" points="122.5,-47.76 119,-37.76 115.5,-47.76 122.5,-47.76"/>
</g>
</g>
</svg>
